<?xml version="1.0" encoding="utf-8"?>

 <svg width="800px" height="800px" viewBox="0 0 24 24" fill="none" xmlns="http://www.w3.org/2000/svg"> 
 
 <path opacity="1" d="M3.46447 3.46447C2 4.92893 2 7.28595 2 12C2 16.714 2 19.0711 3.46447 20.5355C4.92893 22 7.28595 22 12 22C16.714 22 19.0711 22 20.5355 20.5355C22 19.0711 22 16.714 22 12C22 7.28595 22 4.92893 20.5355 3.46447C19.0711 2 16.714 2 12 2C7.28595 2 4.92893 2 3.46447 3.46447Z" fill="#8d93a5">

</path><path opacity="1" d="M 8.029 18.691 L 7.837 18.691 C 7.142 18.691 6.794 18.691 6.578 18.475 C 6.362 18.259 6.362 17.911 6.362 17.216 L 6.362 16.395 C 6.362 16.013 6.362 15.822 6.46 15.651 C 6.558 15.48 6.707 15.394 7.003 15.222 C 8.954 14.087 11.725 13.448 13.575 14.551 C 13.699 14.625 13.811 14.715 13.906 14.822 C 14.318 15.284 14.288 15.982 13.813 16.396 C 13.713 16.484 13.606 16.55 13.499 16.573 C 13.587 16.563 13.672 16.551 13.753 16.538 C 14.425 16.431 14.989 16.072 15.506 15.682 L 16.839 14.675 C 17.308 14.32 18.006 14.32 18.476 14.675 C 18.899 14.994 19.028 15.52 18.761 15.949 C 18.449 16.449 18.009 17.088 17.587 17.479 C 17.165 17.871 16.536 18.22 16.022 18.468 C 15.453 18.743 14.824 18.901 14.185 19.004 C 12.888 19.214 11.537 19.182 10.254 18.918 C 9.528 18.768 8.774 18.691 8.029 18.691 Z" fill="#fff" style=""></path>

<path d="M 11.487 4.304 C 11.877 3.604 12.073 3.254 12.364 3.254 C 12.656 3.254 12.851 3.604 13.242 4.304 L 13.343 4.485 C 13.454 4.684 13.509 4.784 13.595 4.849 C 13.682 4.915 13.79 4.94 14.005 4.988 L 14.201 5.033 C 14.959 5.204 15.338 5.29 15.428 5.58 C 15.518 5.87 15.26 6.172 14.743 6.776 L 14.61 6.932 C 14.463 7.104 14.389 7.19 14.356 7.296 C 14.323 7.402 14.334 7.517 14.357 7.746 L 14.377 7.955 C 14.455 8.761 14.494 9.164 14.258 9.343 C 14.022 9.522 13.667 9.359 12.957 9.032 L 12.774 8.947 C 12.572 8.855 12.471 8.808 12.364 8.808 C 12.258 8.808 12.157 8.855 11.955 8.947 L 11.771 9.032 C 11.062 9.359 10.707 9.522 10.471 9.343 C 10.235 9.164 10.274 8.761 10.352 7.955 L 10.372 7.746 C 10.394 7.517 10.406 7.402 10.373 7.296 C 10.34 7.19 10.266 7.104 10.119 6.932 L 9.986 6.776 C 9.469 6.172 9.211 5.87 9.301 5.58 C 9.391 5.29 9.77 5.204 10.528 5.033 L 10.724 4.988 C 10.939 4.94 11.047 4.915 11.133 4.849 C 11.22 4.784 11.275 4.684 11.386 4.485 L 11.487 4.304 Z" fill="#1c274c" style=""></path>

<path d="M 17.093 9.39 C 17.284 9.041 17.379 8.867 17.521 8.867 C 17.664 8.867 17.759 9.041 17.95 9.39 L 17.999 9.48 C 18.053 9.579 18.08 9.628 18.122 9.661 C 18.164 9.694 18.217 9.706 18.322 9.73 L 18.418 9.752 C 18.788 9.837 18.973 9.88 19.017 10.024 C 19.061 10.169 18.935 10.319 18.683 10.62 L 18.617 10.697 C 18.546 10.783 18.51 10.826 18.494 10.878 C 18.478 10.931 18.483 10.988 18.494 11.102 L 18.504 11.206 C 18.542 11.607 18.561 11.808 18.446 11.897 C 18.33 11.986 18.157 11.905 17.811 11.742 L 17.721 11.7 C 17.623 11.654 17.573 11.631 17.521 11.631 C 17.469 11.631 17.42 11.654 17.321 11.7 L 17.232 11.742 C 16.885 11.905 16.712 11.986 16.597 11.897 C 16.482 11.808 16.501 11.607 16.539 11.206 L 16.549 11.102 C 16.56 10.988 16.565 10.931 16.549 10.878 C 16.533 10.826 16.497 10.783 16.425 10.697 L 16.36 10.62 C 16.108 10.319 15.982 10.169 16.026 10.024 C 16.07 9.88 16.255 9.837 16.625 9.752 L 16.72 9.73 C 16.826 9.706 16.878 9.694 16.92 9.661 C 16.963 9.628 16.99 9.579 17.044 9.48 L 17.093 9.39 Z" fill="#1c274c" style=""></path>

<path d="M 7.052 9.422 C 7.243 9.073 7.338 8.899 7.48 8.899 C 7.623 8.899 7.718 9.073 7.909 9.422 L 7.958 9.512 C 8.012 9.611 8.039 9.66 8.081 9.693 C 8.123 9.726 8.176 9.738 8.281 9.762 L 8.377 9.784 C 8.747 9.869 8.932 9.912 8.976 10.056 C 9.02 10.201 8.894 10.351 8.642 10.652 L 8.576 10.729 C 8.505 10.815 8.469 10.858 8.453 10.91 C 8.437 10.963 8.442 11.02 8.453 11.134 L 8.463 11.238 C 8.501 11.639 8.52 11.84 8.405 11.929 C 8.289 12.018 8.116 11.937 7.77 11.774 L 7.68 11.732 C 7.582 11.686 7.532 11.663 7.48 11.663 C 7.428 11.663 7.379 11.686 7.28 11.732 L 7.191 11.774 C 6.844 11.937 6.671 12.018 6.556 11.929 C 6.441 11.84 6.46 11.639 6.498 11.238 L 6.508 11.134 C 6.519 11.02 6.524 10.963 6.508 10.91 C 6.492 10.858 6.456 10.815 6.384 10.729 L 6.319 10.652 C 6.067 10.351 5.941 10.201 5.985 10.056 C 6.029 9.912 6.214 9.869 6.584 9.784 L 6.679 9.762 C 6.785 9.738 6.837 9.726 6.879 9.693 C 6.922 9.66 6.949 9.611 7.003 9.512 L 7.052 9.422 Z" fill="#1c274c" style=""></path>
 
 </svg>